ffmpeg started on 2025-06-23 at 20:24:19
Report written to "D:\Convert\FFMetrics\reports\psnr_report-6.txt"
Log level: 32
Command line:
ffmpeg -hide_banner -nostdin -i "G:\\\xc0\xed\xe8\xec\xe5\\[\xd2\xee\xef-4]\\\xcc\xee\xe6\xe5\xf2, \xff \xe2\xf1\xf2\xf0\xe5\xf7\xf3 \xf2\xe5\xe1\xff \xe2 \xef\xee\xe4\xe7\xe5\xec\xe5\xeb\xfc\xe5\\\xd2\xc2-1\\DanMachi_[10]_[AniLibria_TV]_[HDTVRip_720p]_HEVC.mkv" -i "G:\\\xc0\xed\xe8\xec\xe5\\[\xd2\xee\xef-4]\\\xcc\xee\xe6\xe5\xf2, \xff \xe2\xf1\xf2\xf0\xe5\xf7\xf3 \xf2\xe5\xe1\xff \xe2 \xef\xee\xe4\xe7\xe5\xec\xe5\xeb\xfc\xe5\\\xd2\xc2-1\\DanMachi_[10]_[AniLibria_TV]_[HDTVRip_720p].mkv" -lavfi "[0:v]settb=AVTB,setpts=PTS-STARTPTS,format=pix_fmts=yuv420p10,fps=24000/1001,scale=1280:720:flags=bicubic[main];[1:v]settb=AVTB,setpts=PTS-STARTPTS,format=pix_fmts=yuv420p,fps=24000/1001,scale=1280:720:flags=bicubic[ref];[main][ref]psnr=eof_action=endall:stats_file='D\\:/Convert/FFMetrics/logs/psnr_logfile-6.txt'" -f null -
Input #0, matroska,webm, from 'G:\Аниме\[Топ-4]\Может, я встречу тебя в подземелье\ТВ-1\DanMachi_[10]_[AniLibria_TV]_[HDTVRip_720p]_HEVC.mkv':
  Metadata:
    ENCODER         : Lavf61.7.100
  Duration: 00:23:41.48, start: -0.021000, bitrate: 783 kb/s
  Stream #0:0(jpn): Video: hevc (Main 10), yuv420p10le(tv, bt709, progressive), 1280x720 [SAR 1:1 DAR 16:9], 23.98 fps, 23.98 tbr, 1k tbn (default)
      Metadata:
        title           : [HorribleSubs]
        ENCODER         : Lavc61.19.100 libx265
        BPS             : 584345
        DURATION        : 00:23:41.462708375
        NUMBER_OF_FRAMES: 34081
        NUMBER_OF_BYTES : 103828140
        _STATISTICS_WRITING_APP: mkvpropedit v66.0.0 ('Josie') 64-bit
        _STATISTICS_WRITING_DATE_UTC: 2025-06-23 09:00:04
        _STATISTICS_TAGS: BPS DURATION NUMBER_OF_FRAMES NUMBER_OF_BYTES
  Stream #0:1(rus): Audio: aac (LC), 48000 Hz, stereo, fltp (default)
      Metadata:
        title           : Metacarmex & Say
        ENCODER         : Lavc61.19.100 aac
        BPS             : 195331
        DURATION        : 00:23:41.460000000
        NUMBER_OF_FRAMES: 66632
        NUMBER_OF_BYTES : 34706952
        _STATISTICS_WRITING_APP: mkvpropedit v66.0.0 ('Josie') 64-bit
        _STATISTICS_WRITING_DATE_UTC: 2025-06-23 09:00:04
        _STATISTICS_TAGS: BPS DURATION NUMBER_OF_FRAMES NUMBER_OF_BYTES
  Stream #0:2(rus): Subtitle: ass (ssa) (default)
      Metadata:
        title           : Надписи [Vaisiliok]
        BPS             : 2
        DURATION        : 00:22:48.710000000
        NUMBER_OF_FRAMES: 4
        NUMBER_OF_BYTES : 418
        _STATISTICS_WRITING_APP: mkvpropedit v66.0.0 ('Josie') 64-bit
        _STATISTICS_WRITING_DATE_UTC: 2025-06-23 09:00:04
        _STATISTICS_TAGS: BPS DURATION NUMBER_OF_FRAMES NUMBER_OF_BYTES
  Stream #0:3(rus): Subtitle: ass (ssa)
      Metadata:
        title           : Полные [Vaisiliok]
        BPS             : 116
        DURATION        : 00:23:37.120000000
        NUMBER_OF_FRAMES: 307
        NUMBER_OF_BYTES : 20586
        _STATISTICS_WRITING_APP: mkvpropedit v66.0.0 ('Josie') 64-bit
        _STATISTICS_WRITING_DATE_UTC: 2025-06-23 09:00:04
        _STATISTICS_TAGS: BPS DURATION NUMBER_OF_FRAMES NUMBER_OF_BYTES
Input #1, matroska,webm, from 'G:\Аниме\[Топ-4]\Может, я встречу тебя в подземелье\ТВ-1\DanMachi_[10]_[AniLibria_TV]_[HDTVRip_720p].mkv':
  Metadata:
    encoder         : libebml v1.4.2 + libmatroska v1.6.4
    creation_time   : 2025-01-14T16:49:58.000000Z
  Duration: 00:23:41.46, start: 0.000000, bitrate: 1970 kb/s
  Stream #1:0(jpn): Video: h264 (High), yuv420p(progressive), 1280x720, SAR 1:1 DAR 16:9, 23.98 fps, 23.98 tbr, 1k tbn (default)
      Metadata:
        title           : [HorribleSubs]
        BPS             : 1772911
        DURATION        : 00:23:41.463000000
        NUMBER_OF_FRAMES: 34081
        NUMBER_OF_BYTES : 315016095
        _STATISTICS_WRITING_APP: mkvmerge v66.0.0 ('Josie') 64-bit
        _STATISTICS_WRITING_DATE_UTC: 2025-01-14 16:49:58
        _STATISTICS_TAGS: BPS DURATION NUMBER_OF_FRAMES NUMBER_OF_BYTES
  Stream #1:1(rus): Audio: aac (LC), 48000 Hz, stereo, fltp (default)
      Metadata:
        title           : Metacarmex & Say
        BPS             : 192000
        DURATION        : 00:23:41.461000000
        NUMBER_OF_FRAMES: 66631
        NUMBER_OF_BYTES : 34115072
        _STATISTICS_WRITING_APP: mkvmerge v66.0.0 ('Josie') 64-bit
        _STATISTICS_WRITING_DATE_UTC: 2025-01-14 16:49:58
        _STATISTICS_TAGS: BPS DURATION NUMBER_OF_FRAMES NUMBER_OF_BYTES
  Stream #1:2(rus): Subtitle: ass (ssa) (default)
      Metadata:
        title           : Надписи [Vaisiliok]
        BPS             : 2
        DURATION        : 00:22:48.710000000
        NUMBER_OF_FRAMES: 4
        NUMBER_OF_BYTES : 418
        _STATISTICS_WRITING_APP: mkvmerge v66.0.0 ('Josie') 64-bit
        _STATISTICS_WRITING_DATE_UTC: 2025-01-14 16:49:58
        _STATISTICS_TAGS: BPS DURATION NUMBER_OF_FRAMES NUMBER_OF_BYTES
  Stream #1:3(rus): Subtitle: ass (ssa)
      Metadata:
        title           : Полные [Vaisiliok]
        BPS             : 116
        DURATION        : 00:23:37.120000000
        NUMBER_OF_FRAMES: 307
        NUMBER_OF_BYTES : 20586
        _STATISTICS_WRITING_APP: mkvmerge v66.0.0 ('Josie') 64-bit
        _STATISTICS_WRITING_DATE_UTC: 2025-01-14 16:49:58
        _STATISTICS_TAGS: BPS DURATION NUMBER_OF_FRAMES NUMBER_OF_BYTES
  Stream #1:4: Attachment: ttf
      Metadata:
        filename        : bonzai.ttf
        mimetype        : application/x-truetype-font
  Stream #1:5: Attachment: ttf
      Metadata:
        filename        : ChinaCyr.ttf
        mimetype        : application/x-truetype-font
  Stream #1:6: Attachment: ttf
      Metadata:
        filename        : TkhO4vNj.ttf
        mimetype        : application/x-truetype-font
  Stream #1:7: Attachment: ttf
      Metadata:
        filename        : OpenSans-Semibold.ttf
        mimetype        : application/x-truetype-font
Stream mapping:
  Stream #0:0 (hevc) -> settb:default
  Stream #1:0 (h264) -> settb:default
  psnr:default -> Stream #0:0 (wrapped_avframe)
  Stream #0:1 -> #0:1 (aac (native) -> pcm_s16le (native))
[swscaler @ 000001aa8bc9c700] No accelerated colorspace conversion found from yuv420p to bgr48le.
[swscaler @ 000001aa8bd197c0] No accelerated colorspace conversion found from yuv420p to bgr48le.
[swscaler @ 000001aa8bdb6580] No accelerated colorspace conversion found from yuv420p to bgr48le.
[swscaler @ 000001aa8be5dac0] No accelerated colorspace conversion found from yuv420p to bgr48le.
[swscaler @ 000001aa8bfa8440] No accelerated colorspace conversion found from yuv420p to bgr48le.
[swscaler @ 000001aa899bff00] No accelerated colorspace conversion found from yuv420p to bgr48le.
[swscaler @ 000001aa899d9ec0] No accelerated colorspace conversion found from yuv420p to bgr48le.
[swscaler @ 000001aa8c39e7c0] No accelerated colorspace conversion found from yuv420p to bgr48le.
[swscaler @ 000001aa8c540f40] No accelerated colorspace conversion found from yuv420p to bgr48le.
[swscaler @ 000001aa8c5d8b40] No accelerated colorspace conversion found from yuv420p to bgr48le.
[swscaler @ 000001aa8c6b2040] No accelerated colorspace conversion found from yuv420p to bgr48le.
[swscaler @ 000001aa8c6d88c0] No accelerated colorspace conversion found from yuv420p to bgr48le.
[swscaler @ 000001aa8fd65040] No accelerated colorspace conversion found from yuv420p to bgr48le.
[swscaler @ 000001aa8fdc0040] No accelerated colorspace conversion found from yuv420p to bgr48le.
[swscaler @ 000001aa8fe1b040] No accelerated colorspace conversion found from yuv420p to bgr48le.
[swscaler @ 000001aa8fea8040] No accelerated colorspace conversion found from yuv420p to bgr48le.
Output #0, null, to 'pipe:':
  Metadata:
    encoder         : Lavf61.7.100
  Stream #0:0: Video: wrapped_avframe, yuv420p10le(tv, bt709, progressive), 1280x720 [SAR 1:1 DAR 16:9], q=2-31, 200 kb/s, 23.98 fps, 23.98 tbn
      Metadata:
        encoder         : Lavc61.19.100 wrapped_avframe
  Stream #0:1(rus): Audio: pcm_s16le, 48000 Hz, stereo, s16, 1536 kb/s (default)
      Metadata:
        title           : Metacarmex & Say
        _STATISTICS_TAGS: BPS DURATION NUMBER_OF_FRAMES NUMBER_OF_BYTES
        BPS             : 195331
        DURATION        : 00:23:41.460000000
        NUMBER_OF_FRAMES: 66632
        NUMBER_OF_BYTES : 34706952
        _STATISTICS_WRITING_APP: mkvpropedit v66.0.0 ('Josie') 64-bit
        _STATISTICS_WRITING_DATE_UTC: 2025-06-23 09:00:04
        encoder         : Lavc61.19.100 pcm_s16le
frame=   88 fps=0.0 q=-0.0 size=N/A time=00:00:03.67 bitrate=N/A speed=7.26x    frame=  188 fps=185 q=-0.0 size=N/A time=00:00:07.84 bitrate=N/A speed=7.72x    frame=  294 fps=191 q=-0.0 size=N/A time=00:00:12.26 bitrate=N/A speed=7.96x    frame=  397 fps=193 q=-0.0 size=N/A time=00:00:16.55 bitrate=N/A speed=8.07x    frame=  496 fps=192 q=-0.0 size=N/A time=00:00:20.68 bitrate=N/A speed=8.03x    frame=  606 fps=196 q=-0.0 size=N/A time=00:00:25.27 bitrate=N/A speed=8.18x    frame=  707 fps=196 q=-0.0 size=N/A time=00:00:29.48 bitrate=N/A speed=8.19x    frame=  810 fps=197 q=-0.0 size=N/A time=00:00:33.78 bitrate=N/A speed=8.22x    frame=  916 fps=198 q=-0.0 size=N/A time=00:00:38.20 bitrate=N/A speed=8.25x    frame= 1022 fps=198 q=-0.0 size=N/A time=00:00:42.62 bitrate=N/A speed=8.27x    frame= 1124 fps=198 q=-0.0 size=N/A time=00:00:46.88 bitrate=N/A speed=8.28x    frame= 1227 fps=199 q=-0.0 size=N/A time=00:00:51.17 bitrate=N/A speed=8.29x    frame= 1334 fps=199 q=-0.0 size=N/A time=00:00:55.63 bitrate=N/A speed= 8.3x    frame= 1435 fps=199 q=-0.0 size=N/A time=00:00:59.85 bitrate=N/A speed= 8.3x    frame= 1534 fps=198 q=-0.0 size=N/A time=00:01:03.98 bitrate=N/A speed=8.27x    frame= 1634 fps=198 q=-0.0 size=N/A time=00:01:08.15 bitrate=N/A speed=8.27x    frame= 1736 fps=198 q=-0.0 size=N/A time=00:01:12.40 bitrate=N/A speed=8.26x    frame= 1835 fps=198 q=-0.0 size=N/A time=00:01:16.53 bitrate=N/A speed=8.26x    frame= 1932 fps=197 q=-0.0 size=N/A time=00:01:20.58 bitrate=N/A speed=8.23x    frame= 2032 fps=197 q=-0.0 size=N/A time=00:01:24.75 bitrate=N/A speed=8.23x    frame= 2136 fps=197 q=-0.0 size=N/A time=00:01:29.08 bitrate=N/A speed=8.23x    frame= 2236 fps=197 q=-0.0 size=N/A time=00:01:33.25 bitrate=N/A speed=8.23x    frame= 2337 fps=197 q=-0.0 size=N/A time=00:01:37.47 bitrate=N/A speed=8.22x    frame= 2436 fps=197 q=-0.0 size=N/A time=00:01:41.60 bitrate=N/A speed=8.22x    frame= 2525 fps=196 q=-0.0 size=N/A time=00:01:45.31 bitrate=N/A speed=8.17x    frame= 2639 fps=197 q=-0.0 size=N/A time=00:01:50.06 bitrate=N/A speed=8.22x    frame= 2745 fps=197 q=-0.0 size=N/A time=00:01:54.48 bitrate=N/A speed=8.22x    frame= 2846 fps=197 q=-0.0 size=N/A time=00:01:58.70 bitrate=N/A speed=8.23x    frame= 2947 fps=197 q=-0.0 size=N/A time=00:02:02.91 bitrate=N/A speed=8.22x    frame= 3048 fps=197 q=-0.0 size=N/A time=00:02:07.12 bitrate=N/A speed=8.22x    frame= 3150 fps=197 q=-0.0 size=N/A time=00:02:11.38 bitrate=N/A speed=8.22x    frame= 3251 fps=197 q=-0.0 size=N/A time=00:02:15.59 bitrate=N/A speed=8.22x    frame= 3354 fps=197 q=-0.0 size=N/A time=00:02:19.88 bitrate=N/A speed=8.22x    frame= 3455 fps=197 q=-0.0 size=N/A time=00:02:24.10 bitrate=N/A speed=8.22x    frame= 3561 fps=197 q=-0.0 size=N/A time=00:02:28.52 bitrate=N/A speed=8.23x    frame= 3666 fps=198 q=-0.0 size=N/A time=00:02:32.90 bitrate=N/A speed=8.24x    frame= 3770 fps=198 q=-0.0 size=N/A time=00:02:37.24 bitrate=N/A speed=8.24x    frame= 3866 fps=197 q=-0.0 size=N/A time=00:02:41.24 bitrate=N/A speed=8.23x    frame= 3972 fps=198 q=-0.0 size=N/A time=00:02:45.66 bitrate=N/A speed=8.24x    frame= 4079 fps=198 q=-0.0 size=N/A time=00:02:50.12 bitrate=N/A speed=8.25x    frame= 4181 fps=198 q=-0.0 size=N/A time=00:02:54.38 bitrate=N/A speed=8.25x    frame= 4282 fps=198 q=-0.0 size=N/A time=00:02:58.59 bitrate=N/A speed=8.25x    frame= 4377 fps=197 q=-0.0 size=N/A time=00:03:02.55 bitrate=N/A speed=8.23x    frame= 4481 fps=198 q=-0.0 size=N/A time=00:03:06.89 bitrate=N/A speed=8.24x    frame= 4575 fps=197 q=-0.0 size=N/A time=00:03:10.81 bitrate=N/A speed=8.23x    frame= 4684 fps=198 q=-0.0 size=N/A time=00:03:15.36 bitrate=N/A speed=8.24x    frame= 4781 fps=197 q=-0.0 size=N/A time=00:03:19.40 bitrate=N/A speed=8.23x    frame= 4888 fps=198 q=-0.0 size=N/A time=00:03:23.87 bitrate=N/A speed=8.24x    frame= 4991 fps=198 q=-0.0 size=N/A time=00:03:28.16 bitrate=N/A speed=8.24x    frame= 5095 fps=198 q=-0.0 size=N/A time=00:03:32.50 bitrate=N/A speed=8.25x    frame= 5201 fps=198 q=-0.0 size=N/A time=00:03:36.92 bitrate=N/A speed=8.25x    frame= 5304 fps=198 q=-0.0 size=N/A time=00:03:41.22 bitrate=N/A speed=8.25x    frame= 5407 fps=198 q=-0.0 size=N/A time=00:03:45.51 bitrate=N/A speed=8.26x    frame= 5512 fps=198 q=-0.0 size=N/A time=00:03:49.89 bitrate=N/A speed=8.26x    frame= 5610 fps=198 q=-0.0 size=N/A time=00:03:53.98 bitrate=N/A speed=8.25x    frame= 5724 fps=198 q=-0.0 size=N/A time=00:03:58.73 bitrate=N/A speed=8.27x    frame= 5827 fps=198 q=-0.0 size=N/A time=00:04:03.03 bitrate=N/A speed=8.27x    frame= 5934 fps=198 q=-0.0 size=N/A time=00:04:07.49 bitrate=N/A speed=8.28x    frame= 6036 fps=199 q=-0.0 size=N/A time=00:04:11.75 bitrate=N/A speed=8.28x    frame= 6137 fps=198 q=-0.0 size=N/A time=00:04:15.96 bitrate=N/A speed=8.27x    frame= 6243 fps=199 q=-0.0 size=N/A time=00:04:20.38 bitrate=N/A speed=8.28x    frame= 6341 fps=198 q=-0.0 size=N/A time=00:04:24.47 bitrate=N/A speed=8.27x    frame= 6444 fps=198 q=-0.0 size=N/A time=00:04:28.76 bitrate=N/A speed=8.28x    frame= 6557 fps=199 q=-0.0 size=N/A time=00:04:33.48 bitrate=N/A speed=8.29x    frame= 6658 fps=199 q=-0.0 size=N/A time=00:04:37.69 bitrate=N/A speed=8.29x    frame= 6765 fps=199 q=-0.0 size=N/A time=00:04:42.15 bitrate=N/A speed=8.29x    frame= 6870 fps=199 q=-0.0 size=N/A time=00:04:46.53 bitrate=N/A speed=8.29x    frame= 6967 fps=199 q=-0.0 size=N/A time=00:04:50.58 bitrate=N/A speed=8.29x    frame= 7065 fps=199 q=-0.0 size=N/A time=00:04:54.66 bitrate=N/A speed=8.29x    frame= 7165 fps=199 q=-0.0 size=N/A time=00:04:58.84 bitrate=N/A speed=8.28x    frame= 7276 fps=199 q=-0.0 size=N/A time=00:05:03.46 bitrate=N/A speed=8.29x    frame= 7379 fps=199 q=-0.0 size=N/A time=00:05:07.76 bitrate=N/A speed=8.29x    frame= 7469 fps=199 q=-0.0 size=N/A time=00:05:11.51 bitrate=N/A speed=8.28x    frame= 7581 fps=199 q=-0.0 size=N/A time=00:05:16.19 bitrate=N/A speed=8.29x    frame= 7678 fps=199 q=-0.0 size=N/A time=00:05:20.23 bitrate=N/A speed=8.28x    frame= 7793 fps=199 q=-0.0 size=N/A time=00:05:25.03 bitrate=N/A speed= 8.3x    frame= 7897 fps=199 q=-0.0 size=N/A time=00:05:29.37 bitrate=N/A speed= 8.3x    frame= 8002 fps=199 q=-0.0 size=N/A time=00:05:33.75 bitrate=N/A speed= 8.3x    frame= 8097 fps=199 q=-0.0 size=N/A time=00:05:37.71 bitrate=N/A speed=8.29x    frame= 8199 fps=199 q=-0.0 size=N/A time=00:05:41.96 bitrate=N/A speed=8.29x    frame= 8302 fps=199 q=-0.0 size=N/A time=00:05:46.26 bitrate=N/A speed=8.29x    frame= 8401 fps=199 q=-0.0 size=N/A time=00:05:50.39 bitrate=N/A speed=8.29x    frame= 8501 fps=199 q=-0.0 size=N/A time=00:05:54.56 bitrate=N/A speed=8.29x    frame= 8600 fps=199 q=-0.0 size=N/A time=00:05:58.69 bitrate=N/A speed=8.28x    frame= 8705 fps=199 q=-0.0 size=N/A time=00:06:03.07 bitrate=N/A speed=8.29x    frame= 8807 fps=199 q=-0.0 size=N/A time=00:06:07.32 bitrate=N/A speed=8.28x    frame= 8911 fps=199 q=-0.0 size=N/A time=00:06:11.66 bitrate=N/A speed=8.29x    frame= 9012 fps=199 q=-0.0 size=N/A time=00:06:15.87 bitrate=N/A speed=8.29x    frame= 9116 fps=199 q=-0.0 size=N/A time=00:06:20.21 bitrate=N/A speed=8.29x    frame= 9218 fps=199 q=-0.0 size=N/A time=00:06:24.46 bitrate=N/A speed=8.29x    frame= 9308 fps=198 q=-0.0 size=N/A time=00:06:28.22 bitrate=N/A speed=8.28x    frame= 9423 fps=199 q=-0.0 size=N/A time=00:06:33.01 bitrate=N/A speed=8.29x    frame= 9523 fps=199 q=-0.0 size=N/A time=00:06:37.18 bitrate=N/A speed=8.28x    frame= 9625 fps=199 q=-0.0 size=N/A time=00:06:41.44 bitrate=N/A speed=8.28x    frame= 9717 fps=198 q=-0.0 size=N/A time=00:06:45.27 bitrate=N/A speed=8.27x    frame= 9832 fps=199 q=-0.0 size=N/A time=00:06:50.07 bitrate=N/A speed=8.29x    frame= 9931 fps=199 q=-0.0 size=N/A time=00:06:54.20 bitrate=N/A speed=8.28x    frame=10045 fps=199 q=-0.0 size=N/A time=00:06:58.96 bitrate=N/A speed=8.29x    frame=10142 fps=199 q=-0.0 size=N/A time=00:07:03.00 bitrate=N/A speed=8.28x    frame=10247 fps=199 q=-0.0 size=N/A time=00:07:07.38 bitrate=N/A speed=8.29x    frame=10349 fps=199 q=-0.0 size=N/A time=00:07:11.63 bitrate=N/A speed=8.29x    frame=10443 fps=199 q=-0.0 size=N/A time=00:07:15.56 bitrate=N/A speed=8.28x    frame=10555 fps=199 q=-0.0 size=N/A time=00:07:20.23 bitrate=N/A speed=8.29x    frame=10652 fps=199 q=-0.0 size=N/A time=00:07:24.27 bitrate=N/A speed=8.28x    frame=10761 fps=199 q=-0.0 size=N/A time=00:07:28.82 bitrate=N/A speed=8.29x    frame=10863 fps=199 q=-0.0 size=N/A time=00:07:33.07 bitrate=N/A speed=8.29x    frame=10967 fps=199 q=-0.0 size=N/A time=00:07:37.41 bitrate=N/A speed=8.29x    frame=11067 fps=199 q=-0.0 size=N/A time=00:07:41.58 bitrate=N/A speed=8.29x    frame=11168 fps=199 q=-0.0 size=N/A time=00:07:45.79 bitrate=N/A speed=8.29x    frame=11271 fps=199 q=-0.0 size=N/A time=00:07:50.09 bitrate=N/A speed=8.29x    frame=11376 fps=199 q=-0.0 size=N/A time=00:07:54.47 bitrate=N/A speed=8.29x    frame=11477 fps=199 q=-0.0 size=N/A time=00:07:58.68 bitrate=N/A speed=8.29x    frame=11565 fps=198 q=-0.0 size=N/A time=00:08:02.35 bitrate=N/A speed=8.28x    frame=11684 fps=199 q=-0.0 size=N/A time=00:08:07.32 bitrate=N/A speed=8.29x    frame=11784 fps=199 q=-0.0 size=N/A time=00:08:11.49 bitrate=N/A speed=8.29x    frame=11886 fps=199 q=-0.0 size=N/A time=00:08:15.74 bitrate=N/A speed=8.29x    frame=11985 fps=199 q=-0.0 size=N/A time=00:08:19.87 bitrate=N/A speed=8.28x    frame=12092 fps=199 q=-0.0 size=N/A time=00:08:24.33 bitrate=N/A speed=8.29x    frame=12193 fps=199 q=-0.0 size=N/A time=00:08:28.54 bitrate=N/A speed=8.29x    frame=12291 fps=199 q=-0.0 size=N/A time=00:08:32.63 bitrate=N/A speed=8.28x    frame=12405 fps=199 q=-0.0 size=N/A time=00:08:37.39 bitrate=N/A speed=8.29x    frame=12504 fps=199 q=-0.0 size=N/A time=00:08:41.52 bitrate=N/A speed=8.29x    frame=12612 fps=199 q=-0.0 size=N/A time=00:08:46.02 bitrate=N/A speed=8.29x    frame=12720 fps=199 q=-0.0 size=N/A time=00:08:50.53 bitrate=N/A speed= 8.3x    frame=12822 fps=199 q=-0.0 size=N/A time=00:08:54.78 bitrate=N/A speed= 8.3x    frame=12926 fps=199 q=-0.0 size=N/A time=00:08:59.12 bitrate=N/A speed= 8.3x    frame=13027 fps=199 q=-0.0 size=N/A time=00:09:03.33 bitrate=N/A speed= 8.3x    frame=13134 fps=199 q=-0.0 size=N/A time=00:09:07.79 bitrate=N/A speed= 8.3x    frame=13237 fps=199 q=-0.0 size=N/A time=00:09:12.09 bitrate=N/A speed= 8.3x    frame=13340 fps=199 q=-0.0 size=N/A time=00:09:16.38 bitrate=N/A speed= 8.3x    frame=13442 fps=199 q=-0.0 size=N/A time=00:09:20.64 bitrate=N/A speed= 8.3x    frame=13541 fps=199 q=-0.0 size=N/A time=00:09:24.77 bitrate=N/A speed= 8.3x    frame=13645 fps=199 q=-0.0 size=N/A time=00:09:29.11 bitrate=N/A speed= 8.3x    frame=13739 fps=199 q=-0.0 size=N/A time=00:09:33.03 bitrate=N/A speed=8.29x    frame=13847 fps=199 q=-0.0 size=N/A time=00:09:37.53 bitrate=N/A speed= 8.3x    frame=13945 fps=199 q=-0.0 size=N/A time=00:09:41.62 bitrate=N/A speed=8.29x    frame=14050 fps=199 q=-0.0 size=N/A time=00:09:46.00 bitrate=N/A speed= 8.3x    frame=14160 fps=199 q=-0.0 size=N/A time=00:09:50.59 bitrate=N/A speed= 8.3x    frame=14263 fps=199 q=-0.0 size=N/A time=00:09:54.88 bitrate=N/A speed= 8.3x    frame=14361 fps=199 q=-0.0 size=N/A time=00:09:58.97 bitrate=N/A speed= 8.3x    frame=14471 fps=199 q=-0.0 size=N/A time=00:10:03.56 bitrate=N/A speed= 8.3x    frame=14577 fps=199 q=-0.0 size=N/A time=00:10:07.98 bitrate=N/A speed= 8.3x    frame=14681 fps=199 q=-0.0 size=N/A time=00:10:12.32 bitrate=N/A speed= 8.3x    frame=14779 fps=199 q=-0.0 size=N/A time=00:10:16.40 bitrate=N/A speed= 8.3x    frame=14882 fps=199 q=-0.0 size=N/A time=00:10:20.70 bitrate=N/A speed= 8.3x    frame=14987 fps=199 q=-0.0 size=N/A time=00:10:25.08 bitrate=N/A speed= 8.3x    frame=15083 fps=199 q=-0.0 size=N/A time=00:10:29.08 bitrate=N/A speed= 8.3x    frame=15188 fps=199 q=-0.0 size=N/A time=00:10:33.46 bitrate=N/A speed= 8.3x    frame=15294 fps=199 q=-0.0 size=N/A time=00:10:37.88 bitrate=N/A speed= 8.3x    frame=15398 fps=199 q=-0.0 size=N/A time=00:10:42.22 bitrate=N/A speed= 8.3x    frame=15502 fps=199 q=-0.0 size=N/A time=00:10:46.56 bitrate=N/A speed= 8.3x    frame=15597 fps=199 q=-0.0 size=N/A time=00:10:50.52 bitrate=N/A speed= 8.3x    frame=15707 fps=199 q=-0.0 size=N/A time=00:10:55.11 bitrate=N/A speed= 8.3x    frame=15811 fps=199 q=-0.0 size=N/A time=00:10:59.45 bitrate=N/A speed= 8.3x    frame=15914 fps=199 q=-0.0 size=N/A time=00:11:03.74 bitrate=N/A speed= 8.3x    frame=16019 fps=199 q=-0.0 size=N/A time=00:11:08.12 bitrate=N/A speed= 8.3x    frame=16123 fps=199 q=-0.0 size=N/A time=00:11:12.46 bitrate=N/A speed= 8.3x    frame=16230 fps=199 q=-0.0 size=N/A time=00:11:16.92 bitrate=N/A speed=8.31x    frame=16333 fps=199 q=-0.0 size=N/A time=00:11:21.22 bitrate=N/A speed=8.31x    frame=16426 fps=199 q=-0.0 size=N/A time=00:11:25.10 bitrate=N/A speed= 8.3x    frame=16541 fps=199 q=-0.0 size=N/A time=00:11:29.89 bitrate=N/A speed=8.31x    frame=16642 fps=199 q=-0.0 size=N/A time=00:11:34.11 bitrate=N/A speed=8.31x    frame=16744 fps=199 q=-0.0 size=N/A time=00:11:38.36 bitrate=N/A speed=8.31x    frame=16848 fps=199 q=-0.0 size=N/A time=00:11:42.70 bitrate=N/A speed=8.31x    frame=16951 fps=199 q=-0.0 size=N/A time=00:11:46.99 bitrate=N/A speed=8.31x    frame=17053 fps=199 q=-0.0 size=N/A time=00:11:51.25 bitrate=N/A speed=8.31x    frame=17157 fps=199 q=-0.0 size=N/A time=00:11:55.58 bitrate=N/A speed=8.31x    frame=17252 fps=199 q=-0.0 size=N/A time=00:11:59.55 bitrate=N/A speed= 8.3x    frame=17355 fps=199 q=-0.0 size=N/A time=00:12:03.84 bitrate=N/A speed= 8.3x    frame=17462 fps=199 q=-0.0 size=N/A time=00:12:08.31 bitrate=N/A speed=8.31x    frame=17566 fps=199 q=-0.0 size=N/A time=00:12:12.64 bitrate=N/A speed=8.31x    frame=17670 fps=199 q=-0.0 size=N/A time=00:12:16.98 bitrate=N/A speed=8.31x    frame=17770 fps=199 q=-0.0 size=N/A time=00:12:21.15 bitrate=N/A speed=8.31x    frame=17874 fps=199 q=-0.0 size=N/A time=00:12:25.49 bitrate=N/A speed=8.31x    frame=17979 fps=199 q=-0.0 size=N/A time=00:12:29.87 bitrate=N/A speed=8.31x    frame=18084 fps=199 q=-0.0 size=N/A time=00:12:34.25 bitrate=N/A speed=8.31x    frame=18182 fps=199 q=-0.0 size=N/A time=00:12:38.34 bitrate=N/A speed=8.31x    frame=18288 fps=199 q=-0.0 size=N/A time=00:12:42.76 bitrate=N/A speed=8.31x    frame=18394 fps=199 q=-0.0 size=N/A time=00:12:47.18 bitrate=N/A speed=8.31x    frame=18493 fps=199 q=-0.0 size=N/A time=00:12:51.31 bitrate=N/A speed=8.31x    frame=18601 fps=199 q=-0.0 size=N/A time=00:12:55.81 bitrate=N/A speed=8.31x    frame=18705 fps=199 q=-0.0 size=N/A time=00:13:00.15 bitrate=N/A speed=8.31x    frame=18813 fps=199 q=-0.0 size=N/A time=00:13:04.65 bitrate=N/A speed=8.31x    frame=18914 fps=199 q=-0.0 size=N/A time=00:13:08.87 bitrate=N/A speed=8.31x    frame=19020 fps=199 q=-0.0 size=N/A time=00:13:13.29 bitrate=N/A speed=8.31x    frame=19122 fps=199 q=-0.0 size=N/A time=00:13:17.54 bitrate=N/A speed=8.31x    frame=19209 fps=199 q=-0.0 size=N/A time=00:13:21.17 bitrate=N/A speed=8.31x    frame=19323 fps=199 q=-0.0 size=N/A time=00:13:25.93 bitrate=N/A speed=8.31x    frame=19429 fps=199 q=-0.0 size=N/A time=00:13:30.35 bitrate=N/A speed=8.31x    frame=19527 fps=199 q=-0.0 size=N/A time=00:13:34.43 bitrate=N/A speed=8.31x    frame=19624 fps=199 q=-0.0 size=N/A time=00:13:38.48 bitrate=N/A speed=8.31x    frame=19738 fps=199 q=-0.0 size=N/A time=00:13:43.23 bitrate=N/A speed=8.31x    frame=19841 fps=199 q=-0.0 size=N/A time=00:13:47.53 bitrate=N/A speed=8.31x    frame=19940 fps=199 q=-0.0 size=N/A time=00:13:51.66 bitrate=N/A speed=8.31x    frame=20048 fps=199 q=-0.0 size=N/A time=00:13:56.16 bitrate=N/A speed=8.31x    frame=20150 fps=199 q=-0.0 size=N/A time=00:14:00.42 bitrate=N/A speed=8.31x    frame=20247 fps=199 q=-0.0 size=N/A time=00:14:04.46 bitrate=N/A speed=8.31x    frame=20356 fps=199 q=-0.0 size=N/A time=00:14:09.01 bitrate=N/A speed=8.31x    frame=20453 fps=199 q=-0.0 size=N/A time=00:14:13.06 bitrate=N/A speed=8.31x    frame=20564 fps=199 q=-0.0 size=N/A time=00:14:17.69 bitrate=N/A speed=8.31x    frame=20661 fps=199 q=-0.0 size=N/A time=00:14:21.73 bitrate=N/A speed=8.31x    frame=20751 fps=199 q=-0.0 size=N/A time=00:14:25.48 bitrate=N/A speed=8.31x    frame=20857 fps=199 q=-0.0 size=N/A time=00:14:29.91 bitrate=N/A speed=8.31x    frame=20956 fps=199 q=-0.0 size=N/A time=00:14:34.03 bitrate=N/A speed=8.31x    frame=21056 fps=199 q=-0.0 size=N/A time=00:14:38.21 bitrate=N/A speed=8.31x    frame=21167 fps=199 q=-0.0 size=N/A time=00:14:42.84 bitrate=N/A speed=8.31x    frame=21274 fps=199 q=-0.0 size=N/A time=00:14:47.30 bitrate=N/A speed=8.31x    frame=21376 fps=199 q=-0.0 size=N/A time=00:14:51.55 bitrate=N/A speed=8.31x    frame=21479 fps=199 q=-0.0 size=N/A time=00:14:55.85 bitrate=N/A speed=8.31x    frame=21570 fps=199 q=-0.0 size=N/A time=00:14:59.64 bitrate=N/A speed= 8.3x    frame=21684 fps=199 q=-0.0 size=N/A time=00:15:04.40 bitrate=N/A speed=8.31x    frame=21784 fps=199 q=-0.0 size=N/A time=00:15:08.57 bitrate=N/A speed=8.31x    frame=21890 fps=199 q=-0.0 size=N/A time=00:15:12.99 bitrate=N/A speed=8.31x    frame=21991 fps=199 q=-0.0 size=N/A time=00:15:17.20 bitrate=N/A speed=8.31x    frame=22092 fps=199 q=-0.0 size=N/A time=00:15:21.42 bitrate=N/A speed=8.31x    frame=22199 fps=199 q=-0.0 size=N/A time=00:15:25.88 bitrate=N/A speed=8.31x    frame=22306 fps=199 q=-0.0 size=N/A time=00:15:30.34 bitrate=N/A speed=8.31x    frame=22410 fps=199 q=-0.0 size=N/A time=00:15:34.68 bitrate=N/A speed=8.31x    frame=22513 fps=199 q=-0.0 size=N/A time=00:15:38.97 bitrate=N/A speed=8.31x    frame=22609 fps=199 q=-0.0 size=N/A time=00:15:42.98 bitrate=N/A speed=8.31x    frame=22717 fps=199 q=-0.0 size=N/A time=00:15:47.48 bitrate=N/A speed=8.31x    frame=22825 fps=199 q=-0.0 size=N/A time=00:15:51.99 bitrate=N/A speed=8.31x    frame=22925 fps=199 q=-0.0 size=N/A time=00:15:56.16 bitrate=N/A speed=8.31x    frame=23033 fps=199 q=-0.0 size=N/A time=00:16:00.66 bitrate=N/A speed=8.31x    frame=23130 fps=199 q=-0.0 size=N/A time=00:16:04.71 bitrate=N/A speed=8.31x    frame=23232 fps=199 q=-0.0 size=N/A time=00:16:08.96 bitrate=N/A speed=8.31x    frame=23346 fps=199 q=-0.0 size=N/A time=00:16:13.72 bitrate=N/A speed=8.32x    frame=23451 fps=199 q=-0.0 size=N/A time=00:16:18.10 bitrate=N/A speed=8.32x    frame=23548 fps=199 q=-0.0 size=N/A time=00:16:22.14 bitrate=N/A speed=8.32x    frame=23661 fps=199 q=-0.0 size=N/A time=00:16:26.86 bitrate=N/A speed=8.32x    frame=23760 fps=199 q=-0.0 size=N/A time=00:16:30.99 bitrate=N/A speed=8.32x    frame=23867 fps=199 q=-0.0 size=N/A time=00:16:35.45 bitrate=N/A speed=8.32x    frame=23983 fps=200 q=-0.0 size=N/A time=00:16:40.29 bitrate=N/A speed=8.32x    frame=24085 fps=200 q=-0.0 size=N/A time=00:16:44.54 bitrate=N/A speed=8.32x    frame=24190 fps=200 q=-0.0 size=N/A time=00:16:48.92 bitrate=N/A speed=8.32x    frame=24288 fps=199 q=-0.0 size=N/A time=00:16:53.01 bitrate=N/A speed=8.32x    frame=24399 fps=200 q=-0.0 size=N/A time=00:16:57.64 bitrate=N/A speed=8.32x    frame=24504 fps=200 q=-0.0 size=N/A time=00:17:02.02 bitrate=N/A speed=8.32x    frame=24606 fps=200 q=-0.0 size=N/A time=00:17:06.27 bitrate=N/A speed=8.32x    frame=24712 fps=200 q=-0.0 size=N/A time=00:17:10.69 bitrate=N/A speed=8.32x    frame=24815 fps=200 q=-0.0 size=N/A time=00:17:14.99 bitrate=N/A speed=8.32x    frame=24917 fps=200 q=-0.0 size=N/A time=00:17:19.24 bitrate=N/A speed=8.32x    frame=25025 fps=200 q=-0.0 size=N/A time=00:17:23.75 bitrate=N/A speed=8.33x    frame=25124 fps=200 q=-0.0 size=N/A time=00:17:27.88 bitrate=N/A speed=8.32x    frame=25232 fps=200 q=-0.0 size=N/A time=00:17:32.38 bitrate=N/A speed=8.33x    frame=25334 fps=200 q=-0.0 size=N/A time=00:17:36.63 bitrate=N/A speed=8.33x    frame=25432 fps=200 q=-0.0 size=N/A time=00:17:40.72 bitrate=N/A speed=8.32x    frame=25538 fps=200 q=-0.0 size=N/A time=00:17:45.14 bitrate=N/A speed=8.32x    frame=25647 fps=200 q=-0.0 size=N/A time=00:17:49.69 bitrate=N/A speed=8.33x    frame=25750 fps=200 q=-0.0 size=N/A time=00:17:53.98 bitrate=N/A speed=8.33x    frame=25857 fps=200 q=-0.0 size=N/A time=00:17:58.45 bitrate=N/A speed=8.33x    frame=25958 fps=200 q=-0.0 size=N/A time=00:18:02.66 bitrate=N/A speed=8.33x    frame=26060 fps=200 q=-0.0 size=N/A time=00:18:06.91 bitrate=N/A speed=8.33x    frame=26158 fps=200 q=-0.0 size=N/A time=00:18:11.00 bitrate=N/A speed=8.33x    frame=26263 fps=200 q=-0.0 size=N/A time=00:18:15.38 bitrate=N/A speed=8.33x    frame=26369 fps=200 q=-0.0 size=N/A time=00:18:19.80 bitrate=N/A speed=8.33x    frame=26457 fps=200 q=-0.0 size=N/A time=00:18:23.47 bitrate=N/A speed=8.32x    frame=26570 fps=200 q=-0.0 size=N/A time=00:18:28.19 bitrate=N/A speed=8.33x    frame=26672 fps=200 q=-0.0 size=N/A time=00:18:32.44 bitrate=N/A speed=8.33x    frame=26769 fps=200 q=-0.0 size=N/A time=00:18:36.49 bitrate=N/A speed=8.32x    frame=26870 fps=200 q=-0.0 size=N/A time=00:18:40.70 bitrate=N/A speed=8.32x    frame=26971 fps=200 q=-0.0 size=N/A time=00:18:44.91 bitrate=N/A speed=8.32x    frame=27069 fps=200 q=-0.0 size=N/A time=00:18:49.00 bitrate=N/A speed=8.32x    frame=27159 fps=199 q=-0.0 size=N/A time=00:18:52.75 bitrate=N/A speed=8.32x    frame=27273 fps=199 q=-0.0 size=N/A time=00:18:57.51 bitrate=N/A speed=8.32x    frame=27373 fps=199 q=-0.0 size=N/A time=00:19:01.68 bitrate=N/A speed=8.32x    frame=27470 fps=199 q=-0.0 size=N/A time=00:19:05.72 bitrate=N/A speed=8.32x    frame=27583 fps=200 q=-0.0 size=N/A time=00:19:10.44 bitrate=N/A speed=8.32x    frame=27684 fps=200 q=-0.0 size=N/A time=00:19:14.65 bitrate=N/A speed=8.32x    frame=27790 fps=200 q=-0.0 size=N/A time=00:19:19.07 bitrate=N/A speed=8.32x    frame=27891 fps=200 q=-0.0 size=N/A time=00:19:23.28 bitrate=N/A speed=8.32x    frame=27994 fps=200 q=-0.0 size=N/A time=00:19:27.58 bitrate=N/A speed=8.32x    frame=28098 fps=200 q=-0.0 size=N/A time=00:19:31.92 bitrate=N/A speed=8.32x    frame=28199 fps=199 q=-0.0 size=N/A time=00:19:36.13 bitrate=N/A speed=8.32x    frame=28298 fps=199 q=-0.0 size=N/A time=00:19:40.26 bitrate=N/A speed=8.32x    frame=28412 fps=200 q=-0.0 size=N/A time=00:19:45.01 bitrate=N/A speed=8.32x    frame=28506 fps=199 q=-0.0 size=N/A time=00:19:48.93 bitrate=N/A speed=8.32x    frame=28623 fps=200 q=-0.0 size=N/A time=00:19:53.81 bitrate=N/A speed=8.32x    frame=28716 fps=200 q=-0.0 size=N/A time=00:19:57.69 bitrate=N/A speed=8.32x    frame=28812 fps=199 q=-0.0 size=N/A time=00:20:01.70 bitrate=N/A speed=8.32x    frame=28929 fps=200 q=-0.0 size=N/A time=00:20:06.58 bitrate=N/A speed=8.32x    frame=29027 fps=200 q=-0.0 size=N/A time=00:20:10.66 bitrate=N/A speed=8.32x    frame=29133 fps=200 q=-0.0 size=N/A time=00:20:15.08 bitrate=N/A speed=8.32x    frame=29236 fps=200 q=-0.0 size=N/A time=00:20:19.38 bitrate=N/A speed=8.32x    frame=29337 fps=200 q=-0.0 size=N/A time=00:20:23.59 bitrate=N/A speed=8.32x    frame=29435 fps=200 q=-0.0 size=N/A time=00:20:27.68 bitrate=N/A speed=8.32x    frame=29541 fps=200 q=-0.0 size=N/A time=00:20:32.10 bitrate=N/A speed=8.32x    frame=29645 fps=200 q=-0.0 size=N/A time=00:20:36.44 bitrate=N/A speed=8.32x    frame=29746 fps=200 q=-0.0 size=N/A time=00:20:40.65 bitrate=N/A speed=8.32x    frame=29850 fps=199 q=-0.0 size=N/A time=00:20:44.99 bitrate=N/A speed=8.32x    frame=29944 fps=199 q=-0.0 size=N/A time=00:20:48.91 bitrate=N/A speed=8.32x    frame=30052 fps=199 q=-0.0 size=N/A time=00:20:53.41 bitrate=N/A speed=8.32x    frame=30158 fps=199 q=-0.0 size=N/A time=00:20:57.83 bitrate=N/A speed=8.32x    frame=30259 fps=199 q=-0.0 size=N/A time=00:21:02.05 bitrate=N/A speed=8.32x    frame=30362 fps=199 q=-0.0 size=N/A time=00:21:06.34 bitrate=N/A speed=8.32x    frame=30462 fps=199 q=-0.0 size=N/A time=00:21:10.51 bitrate=N/A speed=8.32x    frame=30564 fps=199 q=-0.0 size=N/A time=00:21:14.77 bitrate=N/A speed=8.32x    frame=30669 fps=199 q=-0.0 size=N/A time=00:21:19.15 bitrate=N/A speed=8.32x    frame=30771 fps=199 q=-0.0 size=N/A time=00:21:23.40 bitrate=N/A speed=8.32x    frame=30873 fps=199 q=-0.0 size=N/A time=00:21:27.66 bitrate=N/A speed=8.32x    frame=30972 fps=199 q=-0.0 size=N/A time=00:21:31.79 bitrate=N/A speed=8.32x    frame=31077 fps=199 q=-0.0 size=N/A time=00:21:36.16 bitrate=N/A speed=8.32x    frame=31179 fps=199 q=-0.0 size=N/A time=00:21:40.42 bitrate=N/A speed=8.32x    frame=31274 fps=199 q=-0.0 size=N/A time=00:21:44.38 bitrate=N/A speed=8.32x    frame=31375 fps=199 q=-0.0 size=N/A time=00:21:48.59 bitrate=N/A speed=8.32x    frame=31468 fps=199 q=-0.0 size=N/A time=00:21:52.47 bitrate=N/A speed=8.31x    frame=31560 fps=199 q=-0.0 size=N/A time=00:21:56.31 bitrate=N/A speed=8.31x    frame=31645 fps=199 q=-0.0 size=N/A time=00:21:59.86 bitrate=N/A speed=8.31x    frame=31737 fps=199 q=-0.0 size=N/A time=00:22:03.69 bitrate=N/A speed= 8.3x    frame=31840 fps=199 q=-0.0 size=N/A time=00:22:07.99 bitrate=N/A speed= 8.3x    frame=31936 fps=199 q=-0.0 size=N/A time=00:22:11.99 bitrate=N/A speed= 8.3x    frame=32036 fps=199 q=-0.0 size=N/A time=00:22:16.16 bitrate=N/A speed= 8.3x    frame=32126 fps=199 q=-0.0 size=N/A time=00:22:19.92 bitrate=N/A speed= 8.3x    frame=32232 fps=199 q=-0.0 size=N/A time=00:22:24.34 bitrate=N/A speed= 8.3x    frame=32328 fps=199 q=-0.0 size=N/A time=00:22:28.34 bitrate=N/A speed= 8.3x    frame=32432 fps=199 q=-0.0 size=N/A time=00:22:32.68 bitrate=N/A speed= 8.3x    frame=32530 fps=199 q=-0.0 size=N/A time=00:22:36.77 bitrate=N/A speed= 8.3x    frame=32625 fps=199 q=-0.0 size=N/A time=00:22:40.73 bitrate=N/A speed=8.29x    frame=32730 fps=199 q=-0.0 size=N/A time=00:22:45.11 bitrate=N/A speed=8.29x    frame=32828 fps=199 q=-0.0 size=N/A time=00:22:49.20 bitrate=N/A speed=8.29x    frame=32927 fps=199 q=-0.0 size=N/A time=00:22:53.33 bitrate=N/A speed=8.29x    frame=33025 fps=199 q=-0.0 size=N/A time=00:22:57.41 bitrate=N/A speed=8.29x    frame=33125 fps=199 q=-0.0 size=N/A time=00:23:01.58 bitrate=N/A speed=8.29x    frame=33229 fps=199 q=-0.0 size=N/A time=00:23:05.92 bitrate=N/A speed=8.29x    frame=33333 fps=199 q=-0.0 size=N/A time=00:23:10.26 bitrate=N/A speed=8.29x    frame=33440 fps=199 q=-0.0 size=N/A time=00:23:14.72 bitrate=N/A speed=8.29x    frame=33544 fps=199 q=-0.0 size=N/A time=00:23:19.06 bitrate=N/A speed=8.29x    frame=33629 fps=199 q=-0.0 size=N/A time=00:23:22.60 bitrate=N/A speed=8.29x    frame=33748 fps=199 q=-0.0 size=N/A time=00:23:27.57 bitrate=N/A speed=8.29x    frame=33846 fps=199 q=-0.0 size=N/A time=00:23:31.66 bitrate=N/A speed=8.29x    frame=33952 fps=199 q=-0.0 size=N/A time=00:23:36.08 bitrate=N/A speed=8.29x    frame=34053 fps=199 q=-0.0 size=N/A time=00:23:40.29 bitrate=N/A speed=8.29x    [Parsed_psnr_10 @ 000001aa81d2e780] PSNR y:44.914863 u:49.529376 v:49.657272 average:45.992867 min:38.879185 max:inf
[out#0/null @ 000001aaff876b80] video:14644KiB audio:266528KiB subtitle:0KiB other streams:0KiB global headers:0KiB muxing overhead: unknown
frame=34081 fps=199 q=-0.0 Lsize=N/A time=00:23:41.46 bitrate=N/A speed=8.29x    
